<svg xmlns="http://www.w3.org/2000/svg" viewBox="0 0 64 64" role="img" aria-label="WhatsApp">
  <rect width="64" height="64" rx="18" fill="#25d366"/>
  <path fill="#fff" d="M32.1 13.5c-10.2 0-18.5 8.2-18.5 18.3 0 3.5 1 6.8 2.8 9.7L13.5 51l9.9-2.6a18.5 18.5 0 0 0 8.7 2.2c10.2 0 18.5-8.2 18.5-18.3S42.3 13.5 32.1 13.5Zm0 33.8c-3 0-5.8-.8-8.3-2.4l-.6-.3-5.8 1.5 1.6-5.6-.4-.6a15 15 0 0 1-2.4-8.1c0-8.2 6.7-14.9 14.9-14.9S46 23.6 46 31.8s-6.7 15.5-13.9 15.5Z"/>
  <path fill="#fff" d="M40.4 35.7c-.5-.2-2.8-1.4-3.2-1.5-.4-.2-.8-.2-1.1.2-.3.5-1.2 1.5-1.5 1.8-.3.3-.5.3-1 .1-.5-.2-2-.7-3.8-2.4-1.4-1.2-2.4-2.8-2.6-3.2-.3-.5 0-.7.2-1 .2-.2.5-.5.7-.8.2-.3.3-.5.5-.8.2-.3.1-.6 0-.8-.1-.2-1-2.6-1.4-3.5-.4-.9-.8-.8-1.1-.8h-.9c-.3 0-.8.1-1.2.6-.4.5-1.6 1.6-1.6 3.9s1.7 4.5 1.9 4.8c.2.3 3.4 5.2 8.2 7.2 1.1.5 2 .8 2.7 1 .9.3 1.7.2 2.4.1.7-.1 2.8-1.1 3.2-2.2.4-1.1.4-2 .3-2.2-.2-.2-.4-.3-.7-.5Z"/>
</svg>
