<svg xmlns="http://www.w3.org/2000/svg" viewBox="0 0 64 64" role="img" aria-label="CV">
  <defs>
    <linearGradient id="cvGradient" x1="14" x2="50" y1="10" y2="54" gradientUnits="userSpaceOnUse">
      <stop offset="0" stop-color="#ffffff"/>
      <stop offset="1" stop-color="#c7d2fe"/>
    </linearGradient>
  </defs>
  <rect width="64" height="64" rx="18" fill="#111827"/>
  <path fill="url(#cvGradient)" d="M20 10h17.5L48 20.5V50a4 4 0 0 1-4 4H20a4 4 0 0 1-4-4V14a4 4 0 0 1 4-4Z"/>
  <path fill="#7c5cff" d="M37 10v8a3 3 0 0 0 3 3h8L37 10Z"/>
  <path fill="#111827" d="M22 30h20v3H22v-3Zm0 7h20v3H22v-3Zm0 7h12v3H22v-3Z" opacity=".75"/>
  <text x="22" y="25" fill="#111827" font-family="Arial, Helvetica, sans-serif" font-size="11" font-weight="900">CV</text>
</svg>
